<svg width="7" height="7" viewBox="0 0 7 7" fill="none" xmlns="http://www.w3.org/2000/svg">
<rect width="7" height="7" fill="white"/>
<path fill-rule="evenodd" clip-rule="evenodd" d="M3.75 0.0586141C3.67399 0.0202153 3.58777 0 3.5 0C3.41223 0 3.32601 0.0202153 3.25 0.0586141L0.25 1.62356C0.173992 1.66195 0.110875 1.71718 0.0669905 1.78369C0.0231064 1.85019 2.22961e-06 1.92564 0 2.00243V4.99757C2.22961e-06 5.07436 0.0231064 5.14981 0.0669905 5.21631C0.110875 5.28282 0.173992 5.33805 0.25 5.37644L3.25 6.94139C3.32601 6.97978 3.41223 7 3.5 7C3.58777 7 3.67399 6.97978 3.75 6.94139L6.75 5.37644C6.82601 5.33805 6.88913 5.28282 6.93301 5.21631C6.97689 5.14981 7 5.07436 7 4.99757V2.00243C7 1.92564 6.97689 1.85019 6.93301 1.78369C6.88913 1.71718 6.82601 1.66195 6.75 1.62356L3.75 0.0586141Z" fill="#1DC4A5"/>
</svg>
