<svg width="135" height="159" viewBox="0 0 135 159" fill="none" xmlns="http://www.w3.org/2000/svg">
<path d="M53.728 23.1532C52.8996 21.7183 53.3912 19.8835 54.8261 19.0551L86.9645 0.499959C88.3994 -0.328468 90.2341 0.163157 91.0626 1.59803L109.618 33.7364C110.446 35.1713 109.954 37.0061 108.52 37.8345L76.3812 56.3896C74.9463 57.2181 73.1115 56.7264 72.2831 55.2916L53.728 23.1532Z" fill="#00A4BC" fill-opacity="0.5"/>
<path fill-rule="evenodd" clip-rule="evenodd" d="M10.2261 36.7701C10.3606 36.1043 10.6507 35.5034 11.0671 35.028C11.4836 34.5526 12.0116 34.2195 12.5979 34.0624C13.1842 33.9053 13.808 33.9297 14.4064 34.1332C15.0047 34.3367 15.5564 34.7121 16.0058 35.2214L46.8774 69.556C48.9353 71.8457 48.2193 75.6493 45.6008 76.3509L5.15789 87.1876C2.5364 87.89 0.0166104 84.9498 0.654835 81.9413L10.2261 36.7701Z" fill="#00A4BC" fill-opacity="0.5"/>
<path d="M134.999 102.752C134.999 116.244 124.062 127.181 110.57 127.181C97.0783 127.181 86.141 116.244 86.141 102.752C86.141 89.2601 97.0783 78.3228 110.57 78.3228C124.062 78.3228 134.999 89.2601 134.999 102.752Z" fill="#00A4BC" fill-opacity="0.5"/>
<path fill-rule="evenodd" clip-rule="evenodd" d="M41.6142 103.506C41.0837 103.2 40.4819 103.039 39.8693 103.039C39.2567 103.039 38.6549 103.2 38.1244 103.506L17.1851 115.971C16.6546 116.277 16.214 116.717 15.9077 117.247C15.6014 117.776 15.4402 118.377 15.4402 118.989V142.846C15.4402 143.457 15.6014 144.058 15.9077 144.588C16.214 145.118 16.6546 145.558 17.1851 145.863L38.1244 158.328C38.6549 158.634 39.2567 158.795 39.8693 158.795C40.4819 158.795 41.0837 158.634 41.6142 158.328L62.5535 145.863C63.084 145.558 63.5246 145.118 63.8309 144.588C64.1372 144.058 64.2984 143.457 64.2984 142.846V118.989C64.2984 118.377 64.1372 117.776 63.8309 117.247C63.5246 116.717 63.084 116.277 62.5535 115.971L41.6142 103.506Z" fill="#00A4BC" fill-opacity="0.5"/>
</svg>
