<svg width="146" height="160" viewBox="0 0 146 160" fill="none" xmlns="http://www.w3.org/2000/svg">
<rect x="63.2285" y="21.7599" width="43.1102" height="43.1102" rx="3" transform="rotate(-30 63.2285 21.7599)" fill="#C7D1D2"/>
<path fill-rule="evenodd" clip-rule="evenodd" d="M21.2266 37.9748C21.3611 37.3091 21.6512 36.7082 22.0676 36.2327C22.4841 35.7573 23.0121 35.4243 23.5984 35.2672C24.1847 35.1101 24.8085 35.1345 25.4069 35.338C26.0053 35.5415 26.5569 35.9168 27.0063 36.4262L57.8779 70.7607C59.9358 73.0505 59.2198 76.854 56.6013 77.5557L16.1584 88.3923C13.5369 89.0947 11.0171 86.1545 11.6554 83.146L21.2266 37.9748Z" fill="#C7D1D2"/>
<circle cx="121.571" cy="103.957" r="24.4291" fill="#C7D1D2"/>
<path fill-rule="evenodd" clip-rule="evenodd" d="M52.6145 104.711C52.084 104.405 51.4822 104.244 50.8696 104.244C50.257 104.244 49.6552 104.405 49.1246 104.711L28.1854 117.176C27.6549 117.482 27.2143 117.922 26.908 118.451C26.6017 118.981 26.4404 119.582 26.4404 120.194V144.05C26.4404 144.662 26.6017 145.263 26.908 145.793C27.2143 146.322 27.6549 146.762 28.1854 147.068L49.1246 159.533C49.6552 159.839 50.257 160 50.8696 160C51.4822 160 52.084 159.839 52.6145 159.533L73.5538 147.068C74.0843 146.762 74.5248 146.322 74.8311 145.793C75.1374 145.263 75.2987 144.662 75.2987 144.05V120.194C75.2987 119.582 75.1374 118.981 74.8311 118.451C74.5248 117.922 74.0843 117.482 73.5538 117.176L52.6145 104.711Z" fill="#1B4A50" fill-opacity="0.2"/>
</svg>
